<?xml version="1.0" encoding="iso-8859-1"?>
<!-- Uploaded to: SVG Repo, www.svgrepo.com, Generator: SVG Repo Mixer Tools -->
<svg height="800px" width="800px" version="1.1" id="Layer_1" xmlns="http://www.w3.org/2000/svg" xmlns:xlink="http://www.w3.org/1999/xlink" 
	 viewBox="0 0 510.828 510.828" xml:space="preserve">
<g transform="translate(1 1)">
	<path style="fill:#D0E8F9;" d="M407.58,64.649c83.308,83.308,73.763,227.363-21.695,321.953
		c-94.59,94.59-239.512,104.136-321.953,21.695S-8.962,180.933,85.628,85.476C181.085-9.114,325.14-18.66,407.58,64.649
		L407.58,64.649z"/>
	<path style="fill:#0096E6;" d="M205.384,472.513c-55.539,0-107.607-19.092-147.525-59.01
		C16.204,371.849-4.623,313.706-0.284,250.357C4.055,187.876,32.692,127.13,79.553,79.401
		C127.282,32.54,188.028,3.903,250.509-0.436c63.349-4.339,121.492,16.488,163.146,58.142
		c85.912,85.912,76.366,236.041-21.695,334.102C339.892,445.611,271.336,472.513,205.384,472.513z M266.997,16.052
		c-5.207,0-9.546,0-14.753,0.868C193.234,20.391,135.96,47.293,91.702,91.55S20.543,193.083,17.072,252.093
		c-4.339,58.142,14.753,111.078,53.803,149.261c79.837,79.837,218.685,70.292,309.803-21.695
		c91.119-91.119,100.664-229.966,21.695-309.803C366.794,35.144,319.065,16.052,266.997,16.052z"/>
	<path style="fill:#FFFFFF;" d="M386.753,386.601c-87.647,87.647-217.817,102.4-302.861,38.183
		c5.207,6.942,10.414,13.885,17.356,19.959c83.308,83.308,227.363,73.763,321.953-21.695
		c94.59-94.59,104.136-239.512,21.695-321.953c-6.075-6.075-13.017-12.149-19.959-17.356
		C489.153,168.784,474.401,298.954,386.753,386.601L386.753,386.601z"/>
	<path style="fill:#0096E6;" d="M242.699,509.828c-57.275,0-108.475-20.827-147.525-59.01c-6.075-6.075-12.149-13.017-18.224-20.827
		l12.149-12.149c82.441,62.481,207.403,45.993,290.712-38.183c83.308-83.309,99.797-209.139,38.183-290.712l12.149-12.149
		c7.81,6.075,14.753,11.281,20.827,18.224c41.654,41.654,62.481,99.797,58.142,163.146c-4.339,63.349-32.976,124.095-79.837,170.956
		c-47.729,47.729-108.475,75.498-170.956,79.837C253.112,509.828,247.906,509.828,242.699,509.828z M135.96,462.099
		c34.712,22.563,76.366,32.976,121.492,30.373c59.01-4.339,115.417-30.373,159.675-74.63s71.159-101.532,74.631-159.675
		c2.603-45.125-7.81-86.78-30.373-121.492c27.77,83.308,2.603,184.841-69.424,256.868l0,0
		C320.801,464.703,219.268,489.869,135.96,462.099z M386.753,386.601L386.753,386.601L386.753,386.601z"/>
	<path style="fill:#D0E8F9;" d="M398.902,374.452l35.58,35.58"/>
	<path style="fill:#0096E6;" d="M434.482,418.71c-2.603,0-4.339-0.868-6.075-2.603l-35.58-35.58c-3.471-3.471-3.471-8.678,0-12.149
		c3.471-3.471,8.678-3.471,12.149,0l35.58,35.58c3.471,3.471,3.471,8.678,0,12.149C438.821,417.842,437.085,418.71,434.482,418.71z"
		/>
	<path style="fill:#D0E8F9;" d="M367.662,403.957l36.447,36.447"/>
	<path style="fill:#0096E6;" d="M404.109,449.083c-2.603,0-4.339-0.868-6.075-2.603l-36.447-36.447
		c-3.471-3.471-3.471-8.678,0-12.149c3.471-3.471,8.678-3.471,12.149,0l36.447,36.447c3.471,3.471,3.471,8.678,0,12.149
		C408.448,448.215,406.712,449.083,404.109,449.083z"/>
	<path style="fill:#D0E8F9;" d="M424.936,338.872l36.447,36.447"/>
	<path style="fill:#0096E6;" d="M461.384,383.998c-2.603,0-4.339-0.868-6.075-2.603l-36.447-36.447
		c-3.471-3.471-3.471-8.678,0-12.149c3.471-3.471,8.678-3.471,12.149,0l36.447,36.447c3.471,3.471,3.471,8.678,0,12.149
		C465.723,383.13,463.987,383.998,461.384,383.998z"/>
	<path style="fill:#D0E8F9;" d="M445.763,298.086l36.447,36.447"/>
	<path style="fill:#0096E6;" d="M482.211,344.079c-2.603,0-4.339-0.868-6.075-2.603l-36.447-36.447
		c-3.471-3.471-3.471-8.678,0-12.149c3.471-3.471,8.678-3.471,12.149,0l36.447,36.447c3.471,3.471,3.471,8.678,0,12.149
		C486.55,343.211,484.814,344.079,482.211,344.079z"/>
	<path style="fill:#D0E8F9;" d="M331.214,429.123l36.447,36.447"/>
	<path style="fill:#0096E6;" d="M368.529,475.116c-2.603,0-4.339-0.868-6.075-2.603l-36.447-36.447
		c-3.471-3.471-3.471-8.678,0-12.149s8.678-3.471,12.149,0l36.447,36.447c3.471,3.471,3.471,8.678,0,12.149
		C372.868,474.249,370.265,475.116,368.529,475.116z"/>
	<path style="fill:#D0E8F9;" d="M289.56,449.083l36.447,36.447"/>
	<path style="fill:#0096E6;" d="M326.007,494.208c-2.603,0-4.339-0.868-6.075-2.603l-36.447-36.447
		c-3.471-3.471-3.471-8.678,0-12.149c3.471-3.471,8.678-3.471,12.149,0l36.447,36.447c3.471,3.471,3.471,8.678,0,12.149
		C331.214,493.34,328.611,494.208,326.007,494.208z"/>
	<path style="fill:#D0E8F9;" d="M229.682,462.967l36.447,36.447"/>
	<path style="fill:#0096E6;" d="M266.997,508.961c-2.603,0-4.339-0.868-6.075-2.603l-37.315-37.315
		c-3.471-3.471-3.471-8.678,0-12.149c3.471-3.471,8.678-3.471,12.149,0l36.447,36.447c3.471,3.471,3.471,8.678,0,12.149
		C271.336,508.093,268.733,508.961,266.997,508.961z"/>
	<path style="fill:#D0E8F9;" d="M166.333,461.232l36.447,36.447"/>
	<path style="fill:#0096E6;" d="M202.78,506.357c-2.603,0-4.339-0.868-6.075-2.603l-36.447-36.447
		c-3.471-3.471-3.471-8.678,0-12.149c3.471-3.471,8.678-3.471,12.149,0l36.447,36.447c3.471,3.471,3.471,8.678,0,12.149
		C207.987,505.489,205.384,506.357,202.78,506.357z"/>
	<path style="fill:#D0E8F9;" d="M461.384,240.811l36.447,36.447"/>
	<path style="fill:#0096E6;" d="M498.699,285.937c-2.603,0-4.339-0.868-6.075-2.603l-36.447-36.447
		c-3.471-3.471-3.471-8.678,0-12.149c3.471-3.471,8.678-3.471,12.149,0l36.447,36.447c3.471,3.471,3.471,8.678,0,12.149
		C503.038,285.069,500.435,285.937,498.699,285.937z"/>
	<path style="fill:#D0E8F9;" d="M463.119,180.933l36.447,36.447"/>
	<g>
		<path style="fill:#0096E6;" d="M499.567,226.059c-2.603,0-4.339-0.868-6.075-2.603l-36.447-36.447
			c-3.471-3.471-3.471-8.678,0-12.149c3.471-3.471,8.678-3.471,12.149,0l36.447,36.447c3.471,3.471,3.471,8.678,0,12.149
			C503.906,225.191,502.17,226.059,499.567,226.059z"/>
		<path style="fill:#0096E6;" d="M213.194,420.445c-5.207,0-8.678-3.471-8.678-8.678c0-5.207,3.471-8.678,8.678-8.678
			c5.207,0,11.281,0,16.488-0.868c5.207,0,8.678,2.603,9.546,7.81c0.868,4.339-2.603,8.678-7.81,9.546
			C225.343,419.577,219.268,420.445,213.194,420.445L213.194,420.445z M162.862,412.635c-0.868,0-1.736,0-2.603,0
			c-6.075-1.736-11.281-4.339-17.356-6.942c-4.339-1.736-6.075-6.942-4.339-11.281c1.736-4.339,6.942-6.075,11.281-4.339
			c5.207,2.603,9.546,4.339,14.753,6.075c4.339,1.736,6.942,6.075,5.207,11.281C169.804,410.032,166.333,412.635,162.862,412.635z
			 M280.882,407.428c-3.471,0-6.942-1.736-7.81-5.207c-1.736-4.339,0.868-9.546,5.207-11.281c5.207-1.736,10.414-4.339,14.753-6.942
			c4.339-1.736,9.546,0,11.281,4.339c1.736,4.339,0,9.546-4.339,11.281c-5.207,2.603-11.281,5.207-16.488,6.942
			C282.618,406.56,281.75,407.428,280.882,407.428z M103.851,377.055c-1.736,0-4.339-0.868-6.075-2.603l6.075-6.075l-6.075,6.075
			c-4.339-4.339-8.678-8.678-12.149-13.885c-2.603-3.471-2.603-9.546,1.736-12.149c3.471-2.603,9.546-2.603,12.149,1.736
			c3.471,4.339,6.942,7.81,10.414,12.149c3.471,3.471,3.471,8.678,0,12.149C108.19,376.188,106.455,377.055,103.851,377.055z
			 M339.024,371.849c-2.603,0-5.207-0.868-6.942-3.471c-3.471-3.471-2.603-9.546,0.868-12.149c4.339-3.471,7.81-6.942,12.149-11.281
			c3.471-3.471,8.678-3.471,12.149,0s3.471,8.678,0,12.149l0,0c-4.339,4.339-8.678,7.81-13.017,12.149
			C343.363,370.981,341.628,371.849,339.024,371.849z M383.282,319.781c-1.736,0-3.471,0-4.339-0.868
			c-4.339-2.603-5.207-7.81-2.603-12.149c2.603-4.339,5.207-9.546,7.81-14.753c1.736-4.339,6.942-6.075,11.281-4.339
			s6.075,6.942,4.339,11.281c-2.603,5.207-5.207,10.414-8.678,15.62C389.357,318.045,386.753,319.781,383.282,319.781z
			 M68.272,318.913c-3.471,0-6.942-2.603-8.678-6.075c-1.736-6.075-3.471-11.281-4.339-17.356
			c-0.868-4.339,1.736-9.546,6.942-10.414c5.207-0.868,9.546,1.736,10.414,6.942c0.868,5.207,2.603,10.414,4.339,15.62
			c1.736,4.339-0.868,9.546-5.207,11.281C70.007,318.913,69.14,318.913,68.272,318.913z M408.448,255.564c-0.868,0-0.868,0-1.736,0
			c-4.339-0.868-7.81-5.207-6.942-10.414c0.868-5.207,1.736-10.414,2.603-16.488c0.868-4.339,4.339-8.678,9.546-7.81
			c4.339,0.868,8.678,4.339,7.81,9.546c-0.868,6.075-1.736,12.149-2.603,18.224C416.258,252.96,412.787,255.564,408.448,255.564z
			 M61.329,251.225L61.329,251.225c-5.207-0.868-8.678-4.339-8.678-9.546c0.868-6.075,1.736-12.149,2.603-18.224
			c0.868-4.339,5.207-7.81,10.414-6.942c4.339,0.868,7.81,5.207,6.942,10.414c-0.868,5.207-1.736,10.414-2.603,16.488
			C70.007,247.754,65.668,251.225,61.329,251.225z M408.448,187.008c-4.339,0-7.81-2.603-8.678-6.942
			c-0.868-5.207-2.603-10.414-4.339-15.62c-1.736-4.339,0.868-9.546,5.207-11.281s9.546,0.868,11.281,5.207
			c1.736,6.075,3.471,11.281,4.339,17.356c0.868,4.339-1.736,9.546-6.942,10.414C409.316,187.008,408.448,187.008,408.448,187.008z
			 M80.421,185.272c-0.868,0-2.603,0-3.471-0.868c-4.339-1.736-6.075-6.942-4.339-11.281c2.603-5.207,5.207-10.414,8.678-15.62
			c2.603-4.339,7.81-5.207,12.149-2.603c4.339,2.603,5.207,7.81,2.603,12.149c-2.603,3.471-5.207,8.678-7.81,13.017
			C86.495,183.537,83.892,185.272,80.421,185.272z M120.34,128.866c-2.603,0-4.339-0.868-6.075-2.603
			c-3.471-3.471-3.471-8.678,0-12.149l0,0c4.339-4.339,8.678-7.81,13.017-12.149c3.471-3.471,9.546-2.603,12.149,0.868
			c3.471,3.471,2.603,9.546-0.868,12.149c-4.339,3.471-7.81,6.942-12.149,11.281C124.679,127.998,122.943,128.866,120.34,128.866z
			 M379.811,125.394c-2.603,0-5.207-0.868-6.942-3.471c-3.471-4.339-6.942-8.678-10.414-12.149l6.075-6.075l6.075-6.075
			l-6.075,6.075l6.075-6.075c4.339,4.339,8.678,8.678,12.149,13.885c2.603,3.471,2.603,9.546-1.736,12.149
			C383.282,124.527,381.546,125.394,379.811,125.394z M175.879,88.947c-3.471,0-6.075-1.736-7.81-5.207
			c-1.736-4.339,0-9.546,4.339-11.281c5.207-2.603,11.281-5.207,16.488-6.942c4.339-1.736,9.546,0.868,11.281,5.207
			c1.736,4.339-0.868,9.546-5.207,11.281c-5.207,1.736-10.414,4.339-14.753,6.942C178.482,88.947,177.614,88.947,175.879,88.947z
			 M326.007,82.872c-0.868,0-2.603,0-3.471-0.868c-5.207-2.603-9.546-4.339-14.753-6.075c-4.339-1.736-6.942-6.075-5.207-11.281
			c1.736-5.207,6.075-6.942,11.281-5.207c6.075,1.736,11.281,4.339,17.356,6.942c4.339,1.736,6.075,6.942,4.339,11.281
			C332.082,81.137,328.611,82.872,326.007,82.872z M241.831,69.855c-4.339,0-7.81-3.471-8.678-7.81
			c-0.868-4.339,2.603-8.678,7.81-9.546c6.075-0.868,12.149-0.868,18.224-0.868l0,0c5.207,0,8.678,3.471,8.678,8.678
			c0,5.207-3.471,8.678-8.678,8.678c-5.207,0-11.281,0-16.488,0.868C241.831,69.855,241.831,69.855,241.831,69.855z"/>
		<path style="fill:#0096E6;" d="M463.119,506.357c-5.207,0-8.678-3.471-8.678-8.678c0-5.207,3.471-8.678,8.678-8.678
			c13.885,0,26.034-7.81,26.034-17.356c0-5.207,3.471-8.678,8.678-8.678c5.207,0,8.678,3.471,8.678,8.678
			C506.509,490.737,486.55,506.357,463.119,506.357z M55.255,497.679c-24.298,0-43.39-19.092-43.39-43.39
			c0-5.207,3.471-8.678,8.678-8.678s8.678,3.471,8.678,8.678c0,14.753,11.281,26.034,26.034,26.034c5.207,0,8.678,3.471,8.678,8.678
			S59.594,497.679,55.255,497.679z M402.373,489.001c-5.207,0-8.678-3.471-8.678-8.678c0-5.207,3.471-8.678,8.678-8.678
			c43.39,0,78.102-34.712,78.102-78.102c0-5.207,3.471-8.678,8.678-8.678s8.678,3.471,8.678,8.678
			C497.831,445.611,454.441,489.001,402.373,489.001z M489.153,63.781c-5.207,0-8.678-3.471-8.678-8.678
			c0-19.092-11.281-34.712-26.034-34.712c-5.207,0-8.678-3.471-8.678-8.678s3.471-8.678,8.678-8.678
			c24.298,0,43.39,23.431,43.39,52.068C497.831,59.442,493.492,63.781,489.153,63.781z"/>
	</g>
</g>
</svg>